<svg width="134" height="45" viewBox="0 0 134 45" fill="none" xmlns="http://www.w3.org/2000/svg">
<g clip-path="url(#clip0_30008_6346)">
<rect y="0.237793" width="134" height="44.6667" rx="22.3333" fill="white"/>
<rect width="66.1728" height="52.1111" transform="translate(0 -3.5542)" fill="#881337"/>
<path d="M33.7368 11.5215C37.3236 11.5215 39.1758 12.3563 41.7291 14.8516C43.1413 16.7424 44.2685 18.7489 44.0602 21.1788C43.4521 21.7869 42.4946 21.5553 41.6784 21.5561C41.2618 21.5565 40.8452 21.5569 40.4159 21.5574C39.977 21.5561 39.5381 21.5548 39.0858 21.5535C38.4294 21.5554 38.4294 21.5554 37.7596 21.5574C37.3426 21.557 36.9256 21.5565 36.4959 21.5561C36.1108 21.5557 35.7258 21.5553 35.3291 21.5549C34.4028 21.5119 34.4028 21.5119 33.7368 21.1788C33.7368 17.9919 33.7368 14.805 33.7368 11.5215Z" fill="white"/>
<path d="M32.4069 11.5216C32.4151 12.8909 32.4212 14.2601 32.4252 15.6294C32.4269 16.0955 32.4292 16.5617 32.432 17.0278C32.4361 17.6965 32.4378 18.3652 32.4394 19.0339C32.4421 19.6382 32.4421 19.6382 32.4447 20.2547C32.4069 21.179 32.4069 21.179 32.0739 21.512C31.3877 21.5453 30.7004 21.5556 30.0134 21.5562C29.5953 21.5567 29.1772 21.5571 28.7464 21.5575C28.5276 21.5568 28.3087 21.5561 28.0833 21.5554C27.4145 21.5536 26.7458 21.5554 26.0771 21.5575C25.659 21.5571 25.2409 21.5567 24.8101 21.5562C24.4233 21.5558 24.0365 21.5555 23.638 21.5551C22.7496 21.512 22.7496 21.512 22.4165 21.179C22.0419 18.7707 23.1531 16.8541 24.4146 14.8517C26.2988 12.6426 29.4824 10.7167 32.4069 11.5216Z" fill="white"/>
<path d="M43.729 22.714C43.729 25.9009 43.729 29.0878 43.729 32.3713C40.4322 32.3713 37.1353 32.3713 33.7386 32.3713C33.1894 30.7238 33.9458 29.2359 34.6336 27.7091C36.0412 25.029 38.2169 23.4916 41.0194 22.4928C41.7309 22.3809 41.7309 22.3809 43.729 22.714Z" fill="white"/>
<path d="M24.8098 22.67C25.2279 22.6696 25.646 22.6691 26.0768 22.6687C26.2956 22.6694 26.5144 22.6701 26.7399 22.6708C27.4087 22.6726 28.0773 22.6708 28.7461 22.6687C29.1642 22.6691 29.5823 22.6695 30.0131 22.67C30.3999 22.6704 30.7867 22.6707 31.1852 22.6711C32.0736 22.7142 32.0736 22.7142 32.4066 23.0472C32.4399 23.7334 32.4502 24.4207 32.4509 25.1077C32.4515 25.7349 32.4515 25.7349 32.4522 26.3748C32.4511 26.703 32.4511 26.703 32.4501 27.0379C32.4483 27.7066 32.45 28.3753 32.4522 29.0441C32.4517 29.4622 32.4513 29.8803 32.4509 30.3111C32.4505 30.6978 32.4501 31.0846 32.4497 31.4831C32.4066 32.3716 32.4066 32.3716 32.0736 32.7046C29.7133 33.0638 27.9847 32.0378 26.0794 30.7065C23.9315 28.7914 22.5459 26.8285 22.333 23.9006C22.4905 22.2867 23.3704 22.6714 24.8098 22.67Z" fill="white"/>
<path d="M75.896 18.2378C76.255 18.241 76.255 18.241 76.6213 18.2443C76.8611 18.246 77.101 18.2477 77.3481 18.2494C77.5338 18.2516 77.7195 18.2537 77.9108 18.2559C78.6739 20.1663 79.3993 22.0896 80.0956 24.0252C80.2217 24.3756 80.3486 24.7256 80.4755 25.0757C80.5528 25.2918 80.6301 25.508 80.7098 25.7307C80.7793 25.9246 80.8489 26.1184 80.9206 26.3181C81.0706 26.806 81.0706 26.806 81.0706 27.3637C80.3346 27.3637 79.5985 27.3637 78.8401 27.3637C78.6561 26.8116 78.4721 26.2596 78.2825 25.6908C77.1171 25.6908 75.9517 25.6908 74.751 25.6908C74.6283 26.2428 74.5056 26.7949 74.3792 27.3637C73.5818 27.3637 72.7844 27.3637 71.9629 27.3637C72.7227 25.0282 73.5056 22.7051 74.3676 20.4051C74.4761 20.1147 74.4761 20.1147 74.5868 19.8184C75.1763 18.26 75.1763 18.26 75.896 18.2378Z" fill="#881337"/>
<path d="M96.79 20.4283C97.6326 20.9304 98.1693 21.6317 98.5441 22.531C98.7108 23.7283 98.7228 24.8359 98.0794 25.8883C97.3115 26.8576 96.5842 27.2882 95.3553 27.4326C94.0869 27.4806 93.2302 27.4119 92.2245 26.6202C91.1906 25.5024 91.0145 24.641 91.0381 23.1387C91.1712 22.0021 91.7091 21.35 92.5265 20.591C93.7032 19.8168 95.5283 19.838 96.79 20.4283Z" fill="#881337"/>
<path d="M121.127 20.4052C122.032 20.9465 122.579 21.6952 122.858 22.7053C122.87 22.8932 122.881 23.081 122.893 23.2745C122.902 23.3936 122.912 23.5127 122.921 23.6354C122.976 24.785 122.664 25.4953 121.906 26.3763C120.785 27.3406 119.895 27.4547 118.444 27.4167C117.264 27.3069 116.585 26.7574 115.83 25.8768C115.226 24.6593 115.26 23.1729 115.656 21.8921C116.982 20.1386 119.025 19.4647 121.127 20.4052Z" fill="#881337"/>
<path d="M99.8442 20.1143C100.58 20.1143 101.316 20.1143 102.075 20.1143C102.136 20.2984 102.197 20.4824 102.261 20.672C102.372 20.58 102.483 20.488 102.597 20.3932C103.475 19.9803 104.281 19.9924 105.235 20.1143C106.118 20.4999 106.524 21.0029 106.941 21.8667C107.258 22.8639 107.168 23.912 107.14 24.947C107.136 25.1797 107.133 25.4123 107.13 25.652C107.121 26.2225 107.107 26.793 107.093 27.3633C106.357 27.3633 105.621 27.3633 104.863 27.3633C104.852 26.8699 104.852 26.8699 104.842 26.3665C104.83 25.9359 104.817 25.5053 104.805 25.0748C104.8 24.8578 104.796 24.6409 104.792 24.4174C104.785 24.2095 104.779 24.0016 104.772 23.7875C104.767 23.5957 104.762 23.404 104.757 23.2064C104.714 22.7148 104.714 22.7148 104.433 22.3752C103.905 22.0112 103.436 22.0928 102.818 22.1589C102.484 22.3632 102.484 22.3632 102.261 22.7166C102.167 23.2193 102.167 23.2193 102.165 23.7875C102.159 23.9953 102.152 24.2032 102.145 24.4174C102.139 24.7428 102.139 24.7428 102.133 25.0748C102.126 25.2939 102.12 25.513 102.114 25.7388C102.098 26.2802 102.086 26.8218 102.075 27.3633C101.339 27.3633 100.603 27.3633 99.8442 27.3633C99.8442 24.9712 99.8442 22.579 99.8442 20.1143Z" fill="#881337"/>
<path d="M111.23 20.0567C111.472 20.0498 111.715 20.0428 111.965 20.0356C112.775 20.1266 113.158 20.3487 113.786 20.8583C114.265 21.4969 114.343 21.7134 114.343 22.5311C114.014 22.5512 113.685 22.5656 113.356 22.5776C113.173 22.5862 112.989 22.5948 112.8 22.6037C112.299 22.5311 112.299 22.5311 111.985 22.1594C111.904 22.0367 111.824 21.914 111.741 21.7876C111.253 21.7255 111.253 21.7255 110.812 21.7876C110.689 22.033 110.566 22.2783 110.44 22.5311C110.584 22.5606 110.727 22.5901 110.876 22.6204C112.103 22.8954 113.176 23.2031 114.157 24.0181C114.479 24.6622 114.431 25.3584 114.343 26.0627C113.903 26.8286 113.497 27.0988 112.67 27.3638C111.527 27.4788 110.447 27.5403 109.394 27.0501C108.946 26.6139 108.551 26.2161 108.209 25.6909C108.209 25.4456 108.209 25.2002 108.209 24.9474C108.569 24.9274 108.93 24.9129 109.29 24.901C109.591 24.888 109.591 24.888 109.898 24.8748C110.44 24.9474 110.44 24.9474 110.759 25.3192C110.838 25.4419 110.917 25.5645 110.998 25.6909C111.486 25.7531 111.486 25.7531 111.927 25.6909C111.988 25.4456 112.05 25.2002 112.113 24.9474C111.922 24.8933 111.732 24.8391 111.536 24.7834C111.283 24.7066 111.03 24.6296 110.777 24.5525C110.652 24.5175 110.526 24.4825 110.397 24.4465C109.42 24.1412 108.971 23.7536 108.395 22.9029C108.259 22.2208 108.248 21.8276 108.634 21.2365C109.464 20.2398 109.912 20.0812 111.23 20.0567Z" fill="#881337"/>
<path d="M90.3641 17.1407C90.4171 17.7686 90.4491 18.3736 90.3641 18.9994C89.911 19.3595 89.911 19.3595 89.4347 19.557C89.3734 19.741 89.312 19.925 89.2488 20.1146C89.6782 20.1146 90.1076 20.1146 90.55 20.1146C90.55 20.728 90.55 21.3414 90.55 21.9733C90.1206 21.9733 89.6912 21.9733 89.2488 21.9733C89.2488 23.7521 89.2488 25.5309 89.2488 27.3636C88.5128 27.3636 87.7767 27.3636 87.0184 27.3636C87.0184 25.5848 87.0184 23.806 87.0184 21.9733C86.773 21.9733 86.5277 21.9733 86.2749 21.9733C86.2749 21.36 86.2749 20.7466 86.2749 20.1146C86.5203 20.1146 86.7656 20.1146 87.0184 20.1146C87.0299 19.8923 87.0414 19.6699 87.0532 19.4408C87.167 18.5372 87.4781 18.1382 88.1336 17.5124C88.8692 17.0866 89.526 17.1078 90.3641 17.1407Z" fill="#881337"/>
<path d="M85.7195 17.141C85.7195 17.7544 85.7195 18.3677 85.7195 18.9997C85.4129 19.061 85.1062 19.1224 84.7902 19.1856C84.7289 19.4923 84.6675 19.7989 84.6043 20.1149C84.9723 20.1149 85.3404 20.1149 85.7195 20.1149C85.7195 20.7283 85.7195 21.3417 85.7195 21.9736C85.3515 21.9736 84.9835 21.9736 84.6043 21.9736C84.6043 23.7524 84.6043 25.5312 84.6043 27.3639C83.8683 27.3639 83.1322 27.3639 82.3739 27.3639C82.3739 25.5851 82.3739 23.8063 82.3739 21.9736C82.1285 21.9736 81.8832 21.9736 81.6304 21.9736C81.6304 21.3603 81.6304 20.7469 81.6304 20.1149C81.8757 20.1149 82.1211 20.1149 82.3739 20.1149C82.3585 19.9539 82.3432 19.7929 82.3274 19.627C82.396 18.7014 82.8129 18.1521 83.5007 17.5476C84.2375 17.096 84.876 17.1251 85.7195 17.141Z" fill="#881337"/>
<path d="M94.7219 21.8574C95.384 21.9736 95.384 21.9736 95.93 22.3337C96.3777 22.9984 96.4513 23.3872 96.4027 24.1743C96.2513 24.8551 95.9556 25.1282 95.384 25.5052C94.7219 25.6213 94.7219 25.6213 94.0829 25.5052C93.581 25.1062 93.3803 24.809 93.269 24.1743C93.2312 23.4433 93.2938 22.9924 93.6299 22.3337C94.0829 21.9736 94.0829 21.9736 94.7219 21.8574Z" fill="#FAF3F5"/>
<path d="M119.071 21.8574C119.734 21.9736 119.734 21.9736 120.28 22.3453C120.806 23.1104 120.765 23.4732 120.663 24.3899C120.446 25.0257 120.315 25.1177 119.734 25.5052C119.095 25.5865 119.095 25.5865 118.433 25.5052C117.931 25.1062 117.73 24.809 117.619 24.1743C117.581 23.4433 117.643 22.9924 117.979 22.3337C118.433 21.9736 118.433 21.9736 119.071 21.8574Z" fill="#FAF3F5"/>
<path d="M76.4255 20.8579C76.7972 21.0438 76.7972 21.0438 77.0368 21.7125C77.121 21.9887 77.2037 22.2653 77.2851 22.5424C77.3278 22.6834 77.3704 22.8244 77.4143 22.9697C77.5197 23.3186 77.6233 23.6681 77.7266 24.0177C76.9905 24.0177 76.2545 24.0177 75.4961 24.0177C75.7207 22.9119 76.0065 21.9054 76.4255 20.8579Z" fill="#FAF3F5"/>
</g>
<rect x="1" y="1.23779" width="132" height="42.6667" rx="21.3333" stroke="#881337" stroke-width="2"/>
<defs>
<clipPath id="clip0_30008_6346">
<rect y="0.237793" width="134" height="44.6667" rx="22.3333" fill="white"/>
</clipPath>
</defs>
</svg>
