<svg width="143" height="28" viewBox="0 0 143 28" fill="none" xmlns="http://www.w3.org/2000/svg">
<path d="M13.7837 1.18579C18.1199 1.18579 20.3591 2.19504 23.446 5.21176C25.1533 7.49762 26.516 9.92345 26.2642 12.8611C25.5291 13.5962 24.3715 13.3162 23.3847 13.3172C22.881 13.3177 22.3774 13.3182 21.8584 13.3188C21.3278 13.3172 20.7971 13.3156 20.2504 13.314C19.4568 13.3164 19.4568 13.3164 18.6471 13.3188C18.1429 13.3182 17.6387 13.3177 17.1193 13.3172C16.6538 13.3167 16.1883 13.3163 15.7087 13.3158C14.5889 13.2637 14.5889 13.2637 13.7837 12.8611C13.7837 9.00826 13.7837 5.1554 13.7837 1.18579Z" fill="#881337"/>
<path d="M12.1754 1.18605C12.1853 2.84142 12.1927 4.49678 12.1975 6.15217C12.1996 6.7157 12.2023 7.27923 12.2058 7.84276C12.2106 8.65119 12.2127 9.45963 12.2147 10.2681C12.2179 10.9986 12.2179 10.9986 12.2211 11.7439C12.1754 12.8614 12.1754 12.8614 11.7728 13.264C10.9432 13.3042 10.1123 13.3166 9.28174 13.3174C8.77626 13.318 8.27078 13.3185 7.74999 13.319C7.48544 13.3182 7.22089 13.3173 6.94833 13.3165C6.13983 13.3143 5.33142 13.3164 4.52292 13.319C4.01744 13.3185 3.51196 13.318 2.99116 13.3174C2.52357 13.317 2.05597 13.3165 1.57421 13.3161C0.500091 13.264 0.500091 13.264 0.0974933 12.8614C-0.355407 9.94987 0.98789 7.63279 2.51308 5.21202C4.79093 2.54125 8.63974 0.212994 12.1754 1.18605Z" fill="#881337"/>
<path d="M25.8638 14.8741C25.8638 18.7269 25.8638 22.5798 25.8638 26.5494C21.8781 26.5494 17.8924 26.5494 13.7859 26.5494C13.1219 24.5576 14.0364 22.7588 14.8679 20.913C16.5696 17.6729 19.1999 15.8142 22.588 14.6067C23.4482 14.4715 23.4482 14.4715 25.8638 14.8741Z" fill="#881337"/>
<path d="M2.99041 14.8206C3.49589 14.8201 4.00137 14.8196 4.52217 14.819C4.78671 14.8199 5.05126 14.8207 5.32382 14.8216C6.13233 14.8238 6.94074 14.8216 7.74924 14.819C8.25472 14.8196 8.76019 14.8201 9.28099 14.8206C9.74859 14.8211 10.2162 14.8215 10.6979 14.822C11.7721 14.8741 11.7721 14.8741 12.1747 15.2767C12.2149 16.1063 12.2273 16.9372 12.2281 17.7678C12.2289 18.526 12.2289 18.526 12.2297 19.2995C12.2284 19.6963 12.2284 19.6963 12.2271 20.1012C12.225 20.9097 12.2271 21.7181 12.2297 22.5266C12.2292 23.0321 12.2287 23.5375 12.2281 24.0583C12.2277 24.5259 12.2272 24.9935 12.2268 25.4753C12.1747 26.5494 12.1747 26.5494 11.7721 26.952C8.91849 27.3862 6.82876 26.1459 4.52531 24.5364C1.92854 22.2211 0.253531 19.8481 -0.00390625 16.3083C0.186447 14.3572 1.25026 14.8223 2.99041 14.8206Z" fill="#881337"/>
<path d="M40.7134 5.23474C41.491 5.24175 41.491 5.24175 42.2844 5.2489C42.8039 5.25253 43.3234 5.25616 43.8586 5.2599C44.2609 5.26457 44.6631 5.26925 45.0774 5.27406C46.7304 9.41187 48.3016 13.5777 49.8097 17.7703C50.0828 18.5292 50.3577 19.2873 50.6326 20.0455C50.8001 20.5138 50.9675 20.982 51.14 21.4644C51.2907 21.8843 51.4415 22.3041 51.5968 22.7366C51.9216 23.7935 51.9216 23.7935 51.9216 25.0013C50.3273 25.0013 48.733 25.0013 47.0904 25.0013C46.6919 23.8056 46.2933 22.6099 45.8826 21.3779C43.3584 21.3779 40.8341 21.3779 38.2333 21.3779C37.9676 22.5737 37.7019 23.7694 37.4281 25.0013C35.701 25.0013 33.9738 25.0013 32.1943 25.0013C33.8401 19.9428 35.5359 14.9108 37.4029 9.92909C37.638 9.30009 37.638 9.30009 37.8778 8.65839C39.1547 5.28291 39.1547 5.28291 40.7134 5.23474Z" fill="#2D2E37"/>
<path d="M85.9691 9.97931C87.7943 11.0667 88.9567 12.5858 89.7686 14.5337C90.1297 17.127 90.1555 19.5262 88.7621 21.8056C87.0988 23.905 85.5234 24.8377 82.8616 25.1506C80.1142 25.2546 78.2588 25.1058 76.0803 23.3908C73.8408 20.9698 73.4595 19.1039 73.5106 15.85C73.7989 13.388 74.964 11.9757 76.7345 10.3316C79.2832 8.65481 83.2363 8.70054 85.9691 9.97931Z" fill="#2C2E37"/>
<path d="M138.684 9.92886C140.643 11.1015 141.828 12.7232 142.433 14.911C142.458 15.3179 142.483 15.7248 142.508 16.144C142.529 16.4019 142.549 16.6598 142.57 16.9256C142.688 19.4157 142.011 20.9542 140.369 22.8623C137.942 24.9509 136.015 25.1981 132.871 25.1159C130.317 24.878 128.845 23.6878 127.21 21.7803C125.902 19.1433 125.975 15.9237 126.832 13.1496C129.704 9.35154 134.131 7.89183 138.684 9.92886Z" fill="#2C2E37"/>
<path d="M92.585 9.29987C94.1792 9.29987 95.7735 9.29987 97.4161 9.29987C97.549 9.69844 97.6818 10.097 97.8187 10.5077C98.0595 10.3084 98.3003 10.1091 98.5484 9.90377C100.448 9.00962 102.195 9.03566 104.26 9.29987C106.174 10.1349 107.053 11.2244 107.957 13.0955C108.644 15.2554 108.448 17.5255 108.387 19.7674C108.38 20.2713 108.372 20.7752 108.365 21.2944C108.346 22.5301 108.317 23.7657 108.286 25.0012C106.692 25.0012 105.098 25.0012 103.455 25.0012C103.433 23.9323 103.433 23.9323 103.409 22.8419C103.383 21.9093 103.356 20.9768 103.329 20.0442C103.32 19.5743 103.311 19.1043 103.302 18.6202C103.287 18.1699 103.273 17.7197 103.259 17.2559C103.248 16.8405 103.237 16.4252 103.227 15.9973C103.132 14.9325 103.132 14.9325 102.524 14.1968C101.381 13.4084 100.364 13.5851 99.0265 13.7284C98.3027 14.171 98.3027 14.171 97.8187 14.9362C97.6152 16.0252 97.6152 16.0252 97.6127 17.2559C97.5984 17.7061 97.5842 18.1563 97.5695 18.6202C97.5558 19.325 97.5558 19.325 97.5419 20.0442C97.5282 20.5188 97.5144 20.9934 97.5003 21.4824C97.467 22.6552 97.4409 23.8282 97.4161 25.0012C95.8218 25.0012 94.2276 25.0012 92.585 25.0012C92.585 19.8197 92.585 14.6383 92.585 9.29987Z" fill="#2D2F38"/>
<path d="M117.244 9.17415C117.769 9.1591 118.294 9.14405 118.835 9.12854C120.592 9.32547 121.42 9.8067 122.78 10.9103C123.817 12.2937 123.987 12.7626 123.987 14.5337C123.275 14.5773 122.562 14.6085 121.849 14.6344C121.452 14.6531 121.055 14.6717 120.645 14.691C119.559 14.5337 119.559 14.5337 118.879 13.7285C118.705 13.4628 118.531 13.1971 118.351 12.9233C117.294 12.7888 117.294 12.7888 116.338 12.9233C116.072 13.4548 115.807 13.9862 115.533 14.5337C115.844 14.5976 116.156 14.6614 116.476 14.7272C119.136 15.3228 121.458 15.9892 123.585 17.7545C124.282 19.1496 124.177 20.6577 123.987 22.1831C123.034 23.8421 122.153 24.4273 120.364 25.0013C117.888 25.2503 115.549 25.3836 113.268 24.3219C112.298 23.377 111.441 22.5154 110.702 21.3779C110.702 20.8464 110.702 20.315 110.702 19.7675C111.481 19.724 112.261 19.6928 113.042 19.6668C113.693 19.6388 113.693 19.6388 114.358 19.6102C115.533 19.7675 115.533 19.7675 116.225 20.5727C116.395 20.8384 116.565 21.1041 116.741 21.3779C117.798 21.5124 117.798 21.5124 118.754 21.3779C118.886 20.8464 119.019 20.315 119.156 19.7675C118.744 19.6502 118.331 19.5329 117.906 19.4121C117.358 19.2458 116.81 19.0791 116.263 18.912C115.991 18.8362 115.72 18.7604 115.441 18.6824C113.323 18.0211 112.352 17.1816 111.104 15.3389C110.809 13.8617 110.784 13.0099 111.622 11.7297C113.419 9.57065 114.389 9.22732 117.244 9.17415Z" fill="#2F313A"/>
<path d="M72.0515 2.85833C72.1663 4.21841 72.2357 5.52878 72.0515 6.8843C71.0701 7.66434 71.0701 7.66434 70.0385 8.0921C69.9056 8.49067 69.7728 8.88924 69.6359 9.29989C70.5659 9.29989 71.4959 9.29989 72.4541 9.29989C72.4541 10.6285 72.4541 11.957 72.4541 13.3259C71.5241 13.3259 70.5941 13.3259 69.6359 13.3259C69.6359 17.1787 69.6359 21.0316 69.6359 25.0012C68.0416 25.0012 66.4473 25.0012 64.8047 25.0012C64.8047 21.1483 64.8047 17.2955 64.8047 13.3259C64.2733 13.3259 63.7419 13.3259 63.1943 13.3259C63.1943 11.9973 63.1943 10.6687 63.1943 9.29989C63.7258 9.29989 64.2572 9.29989 64.8047 9.29989C64.8296 8.81828 64.8545 8.33667 64.8802 7.84047C65.1266 5.88322 65.8004 5.0189 67.2203 3.66353C68.8135 2.74115 70.2362 2.78714 72.0515 2.85833Z" fill="#2E2F38"/>
<path d="M61.9895 2.85848C61.9895 4.18705 61.9895 5.51562 61.9895 6.88445C61.3252 7.0173 60.6609 7.15016 59.9765 7.28704C59.8436 7.95133 59.7108 8.61561 59.5739 9.30003C60.371 9.30003 61.1682 9.30003 61.9895 9.30003C61.9895 10.6286 61.9895 11.9572 61.9895 13.326C61.1923 13.326 60.3952 13.326 59.5739 13.326C59.5739 17.1789 59.5739 21.0317 59.5739 25.0013C57.9796 25.0013 56.3853 25.0013 54.7427 25.0013C54.7427 21.1485 54.7427 17.2956 54.7427 13.326C54.2113 13.326 53.6799 13.326 53.1323 13.326C53.1323 11.9974 53.1323 10.6689 53.1323 9.30003C53.6638 9.30003 54.1952 9.30003 54.7427 9.30003C54.7095 8.95128 54.6763 8.60253 54.6421 8.24321C54.7906 6.23839 55.6936 5.04844 57.1835 3.73916C58.7793 2.76109 60.1623 2.824 61.9895 2.85848Z" fill="#2A2C35"/>
<path d="M81.4888 13.0743C82.923 13.326 82.923 13.326 84.1057 14.106C85.0753 15.5458 85.2347 16.3878 85.1294 18.0927C84.8015 19.5672 84.161 20.1588 82.923 20.9753C81.4888 21.2269 81.4888 21.2269 80.1048 20.9753C79.0176 20.1111 78.583 19.4674 78.3419 18.0927C78.26 16.5094 78.3956 15.5327 79.1235 14.106C80.1048 13.326 80.1048 13.326 81.4888 13.0743Z" fill="#F3F1F2"/>
<path d="M134.229 13.0743C135.663 13.326 135.663 13.326 136.846 14.1312C137.985 15.7883 137.897 16.574 137.676 18.5597C137.205 19.9368 136.922 20.1361 135.663 20.9753C134.279 21.1514 134.279 21.1514 132.845 20.9753C131.758 20.1111 131.323 19.4674 131.082 18.0927C131 16.5094 131.136 15.5327 131.864 14.106C132.845 13.326 132.845 13.326 134.229 13.0743Z" fill="#F2F0F1"/>
<path d="M41.8582 10.9103C42.6634 11.3129 42.6634 11.3129 43.1824 12.7613C43.3648 13.3596 43.5439 13.9588 43.7202 14.5589C43.8126 14.8643 43.905 15.1697 44.0001 15.4844C44.2283 16.2403 44.4527 16.9973 44.6764 17.7545C43.0821 17.7545 41.4878 17.7545 39.8452 17.7545C40.3317 15.3593 40.9507 13.1792 41.8582 10.9103Z" fill="#EDECED"/>
</svg>
