<svg width="27" height="28" viewBox="0 0 27 28" fill="none" xmlns="http://www.w3.org/2000/svg">
<path d="M13.7837 1.18579C18.1199 1.18579 20.3591 2.19504 23.446 5.21176C25.1533 7.49762 26.516 9.92345 26.2642 12.8611C25.5291 13.5962 24.3715 13.3162 23.3847 13.3172C22.881 13.3177 22.3774 13.3182 21.8584 13.3188C21.3278 13.3172 20.7971 13.3156 20.2504 13.314C19.4568 13.3164 19.4568 13.3164 18.6471 13.3188C18.1429 13.3182 17.6387 13.3177 17.1193 13.3172C16.6538 13.3167 16.1883 13.3163 15.7087 13.3158C14.5889 13.2637 14.5889 13.2637 13.7837 12.8611C13.7837 9.00826 13.7837 5.1554 13.7837 1.18579Z" fill="#881337"/>
<path d="M12.1754 1.18605C12.1853 2.84142 12.1927 4.49678 12.1975 6.15217C12.1996 6.7157 12.2023 7.27923 12.2058 7.84276C12.2106 8.65119 12.2127 9.45963 12.2147 10.2681C12.2179 10.9986 12.2179 10.9986 12.2211 11.7439C12.1754 12.8614 12.1754 12.8614 11.7728 13.264C10.9432 13.3042 10.1123 13.3166 9.28174 13.3174C8.77626 13.318 8.27078 13.3185 7.74999 13.319C7.48544 13.3182 7.22089 13.3173 6.94833 13.3165C6.13983 13.3143 5.33142 13.3164 4.52292 13.319C4.01744 13.3185 3.51196 13.318 2.99116 13.3174C2.52357 13.317 2.05597 13.3165 1.57421 13.3161C0.500091 13.264 0.500091 13.264 0.0974933 12.8614C-0.355407 9.94987 0.98789 7.63279 2.51308 5.21202C4.79093 2.54125 8.63974 0.212994 12.1754 1.18605Z" fill="#881337"/>
<path d="M25.8638 14.8741C25.8638 18.7269 25.8638 22.5798 25.8638 26.5494C21.8781 26.5494 17.8924 26.5494 13.7859 26.5494C13.1219 24.5576 14.0364 22.7588 14.8679 20.913C16.5696 17.6729 19.1999 15.8142 22.588 14.6067C23.4482 14.4715 23.4482 14.4715 25.8638 14.8741Z" fill="#881337"/>
<path d="M2.99041 14.8206C3.49589 14.8201 4.00137 14.8196 4.52217 14.819C4.78671 14.8199 5.05126 14.8207 5.32382 14.8216C6.13233 14.8238 6.94074 14.8216 7.74924 14.819C8.25472 14.8196 8.76019 14.8201 9.28099 14.8206C9.74859 14.8211 10.2162 14.8215 10.6979 14.822C11.7721 14.8741 11.7721 14.8741 12.1747 15.2767C12.2149 16.1063 12.2273 16.9372 12.2281 17.7678C12.2289 18.526 12.2289 18.526 12.2297 19.2995C12.2284 19.6963 12.2284 19.6963 12.2271 20.1012C12.225 20.9097 12.2271 21.7181 12.2297 22.5266C12.2292 23.0321 12.2287 23.5375 12.2281 24.0583C12.2277 24.5259 12.2272 24.9935 12.2268 25.4753C12.1747 26.5494 12.1747 26.5494 11.7721 26.952C8.91849 27.3862 6.82876 26.1459 4.52531 24.5364C1.92854 22.2211 0.253531 19.8481 -0.00390625 16.3083C0.186447 14.3572 1.25026 14.8223 2.99041 14.8206Z" fill="#881337"/>
</svg>
