<svg width="69" height="20" viewBox="0 0 69 20" fill="none" xmlns="http://www.w3.org/2000/svg">
<g clip-path="url(#clip0_30008_5109)">
<path d="M26.7358 16.2897V3.57886H31.8021C32.4678 3.57886 33.0732 3.74833 33.6179 4.0873C34.1627 4.41414 34.5924 4.8681 34.9072 5.44917C35.234 6.03024 35.3974 6.67789 35.3974 7.3921C35.3974 8.13053 35.234 8.79641 34.9072 9.38953C34.5924 9.98273 34.1627 10.4549 33.6179 10.8059C33.0732 11.1569 32.4678 11.3325 31.8021 11.3325H28.3157V16.2897H26.7358ZM28.3157 9.78899H31.8383C32.2016 9.78899 32.5284 9.68613 32.819 9.48034C33.1095 9.26242 33.3395 8.97189 33.509 8.60874C33.6785 8.24558 33.7632 7.84 33.7632 7.3921C33.7632 6.95634 33.6785 6.56893 33.509 6.22998C33.3395 5.89103 33.1095 5.61865 32.819 5.41285C32.5284 5.20705 32.2016 5.10416 31.8383 5.10416H28.3157V9.78899Z" fill="black"/>
<path d="M41.2463 16.4712C40.3142 16.4712 39.4789 16.2594 38.7405 15.8357C38.0141 15.3999 37.4392 14.8128 37.0154 14.0743C36.5917 13.3238 36.3799 12.4704 36.3799 11.514C36.3799 10.5577 36.5917 9.71025 37.0154 8.97182C37.4392 8.23333 38.0141 7.65233 38.7405 7.22862C39.4789 6.80491 40.3142 6.59308 41.2463 6.59308C42.1784 6.59308 43.0077 6.80491 43.734 7.22862C44.4725 7.65233 45.0475 8.23333 45.4591 8.97182C45.8827 9.71025 46.0946 10.5577 46.0946 11.514C46.0946 12.4704 45.8827 13.3238 45.4591 14.0743C45.0475 14.8128 44.4725 15.3999 43.734 15.8357C43.0077 16.2594 42.1784 16.4712 41.2463 16.4712ZM41.2463 15.0549C41.8879 15.0549 42.4569 14.9036 42.9532 14.6009C43.4495 14.2862 43.8369 13.8625 44.1154 13.3298C44.4059 12.7972 44.5451 12.1919 44.533 11.514C44.5451 10.8361 44.4059 10.2369 44.1154 9.71631C43.8369 9.18368 43.4495 8.76603 42.9532 8.46337C42.4569 8.16078 41.8879 8.00941 41.2463 8.00941C40.6047 8.00941 40.0297 8.16078 39.5213 8.46337C39.0249 8.76603 38.6375 9.18368 38.3591 9.71631C38.0807 10.2489 37.9415 10.8482 37.9415 11.514C37.9415 12.1919 38.0807 12.7972 38.3591 13.3298C38.6375 13.8625 39.0249 14.2862 39.5213 14.6009C40.0297 14.9036 40.6047 15.0549 41.2463 15.0549Z" fill="black"/>
<path d="M47.752 16.2898V2.85254H49.2772V16.2898H47.752Z" fill="black"/>
<path d="M55.2965 16.4712C54.4854 16.4712 53.747 16.2594 53.0811 15.8357C52.4275 15.3999 51.9069 14.8067 51.5195 14.0561C51.1322 13.3057 50.9385 12.4582 50.9385 11.514C50.9385 10.5577 51.1382 9.71025 51.5377 8.97182C51.9372 8.23333 52.4698 7.65233 53.1356 7.22862C53.8136 6.80491 54.5702 6.59308 55.4054 6.59308C55.9017 6.59308 56.3558 6.66572 56.7673 6.81097C57.191 6.95627 57.5663 7.16206 57.8932 7.42835C58.22 7.68257 58.4924 7.98523 58.7103 8.33626C58.9281 8.67522 59.0734 9.03838 59.1461 9.42584L58.7466 9.24417L58.7647 6.79285H60.29V16.2897H58.7647V13.9836L59.1461 13.7838C59.0613 14.1348 58.8979 14.4738 58.6557 14.8007C58.4257 15.1275 58.1352 15.418 57.7842 15.6722C57.4452 15.9144 57.0639 16.1081 56.6402 16.2533C56.2165 16.3985 55.7686 16.4712 55.2965 16.4712ZM55.6596 15.0367C56.2771 15.0367 56.8218 14.8854 57.2939 14.5828C57.7661 14.2801 58.1413 13.8685 58.4197 13.348C58.6982 12.8153 58.8374 12.204 58.8374 11.514C58.8374 10.8361 58.6982 10.2369 58.4197 9.71631C58.1534 9.1958 57.7781 8.78415 57.2939 8.48156C56.8218 8.1789 56.2771 8.0276 55.6596 8.0276C55.0423 8.0276 54.4975 8.1789 54.0254 8.48156C53.5533 8.78415 53.178 9.1958 52.8995 9.71631C52.6333 10.2369 52.5001 10.8361 52.5001 11.514C52.5001 12.1919 52.6333 12.7972 52.8995 13.3298C53.178 13.8625 53.5533 14.2801 54.0254 14.5828C54.4975 14.8854 55.0423 15.0367 55.6596 15.0367Z" fill="black"/>
<path d="M62.252 16.2897V6.79285H63.7773L63.8136 9.46209L63.6502 9.00813C63.7833 8.56024 64.0012 8.15471 64.3039 7.7915C64.6065 7.42835 64.9636 7.13781 65.3752 6.91989C65.7989 6.70204 66.2468 6.59308 66.7189 6.59308C66.9247 6.59308 67.1186 6.61124 67.2998 6.64755C67.4937 6.67177 67.6509 6.70811 67.7722 6.75647L67.3545 8.44518C67.1972 8.37263 67.034 8.31807 66.8642 8.28183C66.6947 8.24552 66.5373 8.22733 66.392 8.22733C66.0047 8.22733 65.6476 8.29995 65.3207 8.44518C65.006 8.59048 64.7336 8.79028 64.5036 9.04451C64.2857 9.28654 64.1102 9.57108 63.977 9.89792C63.856 10.2248 63.7954 10.5759 63.7954 10.9511V16.2897H62.252Z" fill="black"/>
<path fill-rule="evenodd" clip-rule="evenodd" d="M4.57896 17.9528C8.97877 20.9311 14.9599 19.7788 17.9381 15.379C20.9165 10.9792 19.7642 4.99809 15.3644 2.01979C10.9646 -0.958512 4.98344 0.193827 2.00514 4.5936C-0.973163 8.99335 0.179178 14.9745 4.57896 17.9528ZM5.85499 18.0314C9.87975 20.0905 14.9852 18.1576 17.2585 13.7144C19.5317 9.27102 18.1119 3.99976 14.0871 1.94065C10.0625 -0.118434 4.95696 1.81437 2.6837 6.25769C0.410441 10.701 1.83028 15.9722 5.85499 18.0314Z" fill="black"/>
<path fill-rule="evenodd" clip-rule="evenodd" d="M7.00259 19.0821C10.6356 20.2646 14.9095 17.1409 16.5487 12.105C18.1877 7.06917 16.5712 2.02822 12.9381 0.845747C9.30508 -0.33672 5.03127 2.78705 3.3922 7.82292C1.75315 12.8587 3.3696 17.8997 7.00259 19.0821ZM8.11397 18.6994C11.1886 19.3552 14.5132 15.9855 15.5397 11.1732C16.5661 6.36071 14.9058 1.92784 11.8311 1.27204C8.75646 0.61624 5.43184 3.98586 4.40539 8.79832C3.37894 13.6107 5.03933 18.0436 8.11397 18.6994Z" fill="black"/>
<path fill-rule="evenodd" clip-rule="evenodd" d="M8.96173 19.4929C11.3927 19.7524 13.8187 15.6978 14.3804 10.4366C14.9422 5.17546 13.427 0.700011 10.9961 0.440449C8.56527 0.180884 6.13924 4.2355 5.57746 9.49666C5.01568 14.7578 6.53088 19.2333 8.96173 19.4929ZM10.0993 17.8915C11.8585 17.8637 13.2287 14.3024 13.1597 9.93702C13.0908 5.57162 11.6087 2.05532 9.84952 2.08311C8.09026 2.11091 6.72004 5.67227 6.78901 10.0377C6.85798 14.403 8.34003 17.9193 10.0993 17.8915Z" fill="black"/>
</g>
<defs>
<clipPath id="clip0_30008_5109">
<rect width="67.9534" height="19.9863" fill="white" transform="translate(0.260254 0.0198364)"/>
</clipPath>
</defs>
</svg>
