<svg width="41" height="18" viewBox="0 0 41 18" fill="none" xmlns="http://www.w3.org/2000/svg">
<g clip-path="url(#clip0_30008_5118)">
<path d="M40.5581 9.25657C40.5581 6.37767 39.1636 4.10604 36.4984 4.10604C33.8219 4.10604 32.2025 6.37775 32.2025 9.23411C32.2025 12.619 34.1144 14.3283 36.8582 14.3283C38.1965 14.3283 39.2086 14.0247 39.9733 13.5974V11.3482C39.2087 11.7306 38.3315 11.9668 37.2182 11.9668C36.1273 11.9668 35.1602 11.5844 35.0365 10.2575H40.5357C40.5357 10.1112 40.5581 9.52644 40.5581 9.25657ZM35.0027 8.18824C35.0027 6.91749 35.7787 6.3889 36.4872 6.3889C37.1732 6.3889 37.9042 6.91749 37.9042 8.18824H35.0027ZM27.8618 4.10604C26.7597 4.10604 26.0512 4.62332 25.6576 4.98325L25.5114 4.28601H23.0374V17.3984L25.8488 16.8024L25.8601 13.6199C26.2649 13.9123 26.8609 14.3283 27.8505 14.3283C29.8635 14.3283 31.6965 12.709 31.6965 9.14413C31.6853 5.88285 29.8298 4.10604 27.8618 4.10604M27.187 11.8543C26.5235 11.8543 26.1298 11.6182 25.86 11.3258L25.8487 7.1536C26.1411 6.82751 26.5459 6.60263 27.187 6.60263C28.2103 6.60263 28.9188 7.74963 28.9188 9.22281C28.9188 10.7297 28.2215 11.8543 27.187 11.8543ZM19.1688 3.44256L21.9915 2.83529V0.552429L19.1688 1.14847V3.44256ZM19.1688 4.29723H21.9915V14.1372H19.1688V4.29723ZM16.1438 5.12938L15.9639 4.29723H13.5348V14.1372H16.3462V7.46854C17.0096 6.60263 18.1343 6.76006 18.4829 6.88373V4.29723C18.123 4.16226 16.8073 3.91485 16.1438 5.12938ZM10.5209 1.85694L7.77699 2.44167L7.76576 11.4494C7.76576 13.1139 9.01406 14.3396 10.6784 14.3396C11.6006 14.3396 12.2753 14.1709 12.6463 13.9685V11.6856C12.2866 11.8318 10.5097 12.3491 10.5097 10.6848V6.69253H12.6463V4.29723H10.5097L10.5209 1.85694ZM2.91887 7.1536C2.91887 6.71507 3.27872 6.54633 3.87483 6.54633C4.72943 6.54633 5.80899 6.80505 6.66367 7.26611V4.62332C5.73032 4.25224 4.80819 4.10604 3.87483 4.10604C1.59189 4.10604 0.0737305 5.29812 0.0737305 7.28865C0.0737305 10.3923 4.34705 9.8976 4.34705 11.2359C4.34705 11.7531 3.89729 11.9218 3.26749 11.9218C2.33413 11.9218 1.14206 11.5394 0.197398 11.0221V13.6986C1.24327 14.1485 2.30037 14.3396 3.26749 14.3396C5.60657 14.3396 7.21472 13.1813 7.21472 11.1684C7.20349 7.81716 2.91887 8.41312 2.91887 7.1536Z" fill="black"/>
</g>
<defs>
<clipPath id="clip0_30008_5118">
<rect width="40.4844" height="16.9212" fill="white" transform="translate(0.0737305 0.552429)"/>
</clipPath>
</defs>
</svg>
